<?xml version="1.0" encoding="UTF-8" standalone="no"?>
<!DOCTYPE svg PUBLIC "-//W3C//DTD SVG 1.1//EN" "http://www.w3.org/Graphics/SVG/1.1/DTD/svg11.dtd">
<svg width="100%" height="100%" viewBox="0 0 1000 500" version="1.1" xmlns="http://www.w3.org/2000/svg" xmlns:xlink="http://www.w3.org/1999/xlink" xml:space="preserve" xmlns:serif="http://www.serif.com/" style="fill-rule:evenodd;clip-rule:evenodd;stroke-linejoin:round;stroke-miterlimit:2;">
    <g id="Name" transform="matrix(1,0,0,1,20.8651,-301.155)">
        <g id="I" transform="matrix(1.12244,0,0,1.83347,619.193,30.9477)">
            <rect x="221.874" y="174.646" width="26.728" height="163.624"/>
        </g>
        <g id="U" transform="matrix(1,0,0,1,-36.7894,2.30903)">
            <g transform="matrix(1.0517,0,0,1.0517,618.839,-39.9964)">
                <path d="M62.891,559.894C62.891,612.407 105.462,654.977 157.975,654.977C210.488,654.977 253.059,612.407 253.059,559.894L224.534,559.894C224.534,596.653 194.734,626.452 157.975,626.452C121.216,626.452 91.416,596.653 91.416,559.894L62.891,559.894Z"/>
            </g>
            <g transform="matrix(0.874818,0,0,0.930791,272.472,27.7017)">
                <rect x="665.864" y="345.023" width="34.293" height="214.871"/>
            </g>
            <g transform="matrix(0.874818,0,0,0.930791,102.472,27.7017)">
                <rect x="665.864" y="345.023" width="34.293" height="214.871"/>
            </g>
        </g>
        <g id="d" transform="matrix(1,0,0,1,-31.8486,0)">
            <g transform="matrix(1.12244,0,0,1.83347,380.96,30.9477)">
                <rect x="221.874" y="174.646" width="26.728" height="163.624"/>
            </g>
            <g transform="matrix(1.0517,0,0,1.0517,393.857,-37.6873)">
                <path d="M157.975,464.81C210.453,464.81 253.059,507.415 253.059,559.894C253.059,612.372 210.453,654.977 157.975,654.977C105.497,654.977 62.891,612.372 62.891,559.894C62.891,507.415 105.497,464.81 157.975,464.81ZM157.975,493.335C194.71,493.335 224.534,523.159 224.534,559.894C224.534,596.628 194.71,626.452 157.975,626.452C121.24,626.452 91.416,596.628 91.416,559.894C91.416,523.159 121.24,493.335 157.975,493.335Z"/>
            </g>
        </g>
        <g id="r" transform="matrix(1,0,0,1,-4.94081,1.1545)">
            <g transform="matrix(1.09571,0,0,1.22231,-26.6638,236.529)">
                <rect x="284.455" y="174.646" width="27.379" height="163.624"/>
            </g>
            <g transform="matrix(1.42128,0,0,1.42128,-119.274,201.779)">
                <path d="M374.538,190.101C364.642,180.205 351.22,174.646 337.225,174.646C308.081,174.646 284.455,198.271 284.455,227.415L305.563,227.415C305.563,209.929 319.738,195.753 337.225,195.753C345.622,195.753 353.675,199.089 359.613,205.027L374.538,190.101Z"/>
            </g>
        </g>
        <g id="a" transform="matrix(1,0,0,1,-8.52651e-14,1.1545)">
            <g transform="matrix(1.12244,0,0,1.22231,-19.0038,236.529)">
                <rect x="221.874" y="174.646" width="26.728" height="163.624"/>
            </g>
            <g transform="matrix(1.0517,0,0,1.0517,-6.10639,-38.8418)">
                <path d="M157.975,464.81C210.453,464.81 253.059,507.415 253.059,559.894C253.059,612.372 210.453,654.977 157.975,654.977C105.497,654.977 62.891,612.372 62.891,559.894C62.891,507.415 105.497,464.81 157.975,464.81ZM157.975,493.335C194.71,493.335 224.534,523.159 224.534,559.894C224.534,596.628 194.71,626.452 157.975,626.452C121.24,626.452 91.416,596.628 91.416,559.894C91.416,523.159 121.24,493.335 157.975,493.335Z"/>
            </g>
        </g>
    </g>
</svg>
