<?xml version="1.0" encoding="UTF-8" standalone="no"?>
<!DOCTYPE svg PUBLIC "-//W3C//DTD SVG 1.1//EN" "http://www.w3.org/Graphics/SVG/1.1/DTD/svg11.dtd">
<svg width="100%" height="100%" viewBox="0 0 1000 1000" version="1.1" xmlns="http://www.w3.org/2000/svg" xmlns:xlink="http://www.w3.org/1999/xlink" xml:space="preserve" xmlns:serif="http://www.serif.com/" style="fill-rule:evenodd;clip-rule:evenodd;stroke-linejoin:round;stroke-miterlimit:2;">
    <g id="Cursor" transform="matrix(1,0,0,1,0,-19.4394)">
        <g id="Cursor-fill" serif:id="Cursor fill" transform="matrix(2.33198,0,0,2.33198,591.401,246.746)">
            <path d="M0,0L0,220.193L51.754,168.439L90.069,246.695L122.683,214.378L93.873,155.362L155.417,155.362L0,0Z" style="fill:white;"/>
        </g>
        <g id="Cursor1" serif:id="Cursor" transform="matrix(2.33198,0,0,2.33198,591.401,246.746)">
            <path d="M0,0L0,220.193L51.754,168.439L90.069,246.695L122.683,214.378L93.873,155.362L155.417,155.362L0,0ZM12.72,30.7L124.701,142.642C124.701,142.642 93.873,142.642 93.873,142.642C89.486,142.642 85.409,144.903 83.085,148.623C80.761,152.344 80.518,157 82.443,160.942L107.252,211.762C107.252,211.762 93.702,225.189 93.702,225.189C93.702,225.189 63.178,162.846 63.178,162.846C61.372,159.157 57.895,156.567 53.844,155.892C49.792,155.217 45.664,156.54 42.76,159.445L12.72,189.485L12.72,30.7Z"/>
        </g>
    </g>
    <g id="Text" transform="matrix(1,0,0,1,0,-19.4394)">
        <g id="I" transform="matrix(2.15275,0.188341,-0.307649,3.51645,109.954,-414.297)">
            <rect x="221.874" y="174.646" width="26.728" height="163.624"/>
        </g>
        <g id="U" transform="matrix(1.896,0.334316,-0.334316,1.896,-1030.21,-673.566)">
            <g transform="matrix(1.0517,0,0,1.0517,618.839,-39.9964)">
                <path d="M62.891,559.894C62.891,612.407 105.462,654.977 157.975,654.977C210.488,654.977 253.059,612.407 253.059,559.894L224.534,559.894C224.534,596.653 194.734,626.452 157.975,626.452C121.216,626.452 91.416,596.653 91.416,559.894L62.891,559.894Z"/>
            </g>
            <g transform="matrix(0.874818,0,0,0.930791,272.472,27.7017)">
                <rect x="665.864" y="345.023" width="34.293" height="214.871"/>
            </g>
            <g transform="matrix(0.874818,0,0,0.930791,102.472,27.7017)">
                <rect x="665.864" y="345.023" width="34.293" height="214.871"/>
            </g>
        </g>
    </g>
</svg>
